{
  "accessors": [
    {
      "bufferView": 2,
      "componentType": 5126,
      "count": 24393,
      "max": [
        0.10191699117422104,
        1.3644088506698608,
        0.085518479347229
      ],
      "min": [
        -0.14019498229026794,
        0.0028832233510911465,
        -0.14836588501930237
      ],
      "type": "VEC3"
    },
    {
      "bufferView": 2,
      "byteOffset": 292716,
      "componentType": 5126,
      "count": 24393,
      "max": [
        0.9999380111694336,
        1.0,
        0.9999380111694336
      ],
      "min": [
        -0.9999380111694336,
        -1.0,
        -0.9999380111694336
      ],
      "type": "VEC3"
    },
    {
      "bufferView": 1,
      "componentType": 5126,
      "count": 24393,
      "max": [
        0.9754247665405273,
        0.994063138961792
      ],
      "min": [
        -0.1152343600988388,
        -0.005936882924288511
      ],
      "type": "VEC2"
    },
    {
      "bufferView": 0,
      "componentType": 5125,
      "count": 34656,
      "type": "SCALAR"
    },
    {
      "bufferView": 2,
      "byteOffset": 585432,
      "componentType": 5126,
      "count": 64,
      "max": [
        0.07764774560928345,
        1.3155324459075928,
        0.0771552175283432
      ],
      "min": [
        -0.07724663615226746,
        1.1793628931045532,
        -0.07773914933204651
      ],
      "type": "VEC3"
    },
    {
      "bufferView": 2,
      "byteOffset": 586200,
      "componentType": 5126,
      "count": 64,
      "max": [
        0.9769681096076965,
        -0.213118776679039,
        0.9769681096076965
      ],
      "min": [
        -0.9769681096076965,
        -0.21410319209098816,
        -0.9769681692123413
      ],
      "type": "VEC3"
    },
    {
      "bufferView": 1,
      "byteOffset": 195144,
      "componentType": 5126,
      "count": 64,
      "max": [
        0.8089965581893921,
        0.9171851277351379
      ],
      "min": [
        0.432010293006897,
        0.5161070227622986
      ],
      "type": "VEC2"
    },
    {
      "bufferView": 0,
      "byteOffset": 138624,
      "componentType": 5125,
      "count": 144,
      "type": "SCALAR"
    }
  ],
  "asset": {
    "extras": {
      "author": "MarkoJantti (https://sketchfab.com/MarkoJantti)",
      "license": "CC-BY-4.0 (http://creativecommons.org/licenses/by/4.0/)",
      "source": "https://sketchfab.com/3d-models/free-light-pole-c3111f60cc7a4615ac660832815a419d",
      "title": "Free Light Pole"
    },
    "generator": "Sketchfab-13.72.0",
    "version": "2.0"
  },
  "bufferViews": [
    {
      "buffer": 0,
      "byteLength": 139200,
      "name": "floatBufferViews",
      "target": 34963
    },
    {
      "buffer": 0,
      "byteLength": 195656,
      "byteOffset": 139200,
      "byteStride": 8,
      "name": "floatBufferViews",
      "target": 34962
    },
    {
      "buffer": 0,
      "byteLength": 586968,
      "byteOffset": 334856,
      "byteStride": 12,
      "name": "floatBufferViews",
      "target": 34962
    }
  ],
  "buffers": [
    {
      "byteLength": 921824,
      "uri": "scene.bin"
    }
  ],
  "extensionsUsed": [
    "KHR_materials_clearcoat"
  ],
  "images": [
    {
      "uri": "textures/Metal_baseColor.png"
    },
    {
      "uri": "textures/Metal_metallicRoughness.png"
    }
  ],
  "materials": [
    {
      "doubleSided": true,
      "name": "Metal",
      "occlusionTexture": {
        "index": 1,
        "strength": 0.07787393498262778
      },
      "pbrMetallicRoughness": {
        "baseColorTexture": {
          "index": 0
        },
        "metallicFactor": 0.5532199320208565,
        "metallicRoughnessTexture": {
          "index": 1
        },
        "roughnessFactor": 0.27288767735728575
      }
    },
    {
      "alphaMode": "BLEND",
      "doubleSided": true,
      "extensions": {
        "KHR_materials_clearcoat": {
          "clearcoatFactor": 0.8823056222780918,
          "clearcoatRoughnessFactor": 0.04
        }
      },
      "name": "Glass",
      "pbrMetallicRoughness": {
        "baseColorFactor": [
          0.8457405455828435,
          0.8457405455828435,
          0.8457405455828435,
          0.4313363430366953
        ],
        "metallicFactor": 0.0,
        "roughnessFactor": 0.693386059352642
      }
    }
  ],
  "meshes": [
    {
      "name": "Object_0",
      "primitives": [
        {
          "attributes": {
            "NORMAL": 1,
            "POSITION": 0,
            "TEXCOORD_0": 2
          },
          "indices": 3,
          "material": 0,
          "mode": 4
        }
      ]
    },
    {
      "name": "Object_1",
      "primitives": [
        {
          "attributes": {
            "NORMAL": 5,
            "POSITION": 4,
            "TEXCOORD_0": 6
          },
          "indices": 7,
          "material": 1,
          "mode": 4
        }
      ]
    }
  ],
  "nodes": [
    {
      "children": [
        1
      ],
      "matrix": [
        1.0,
        0.0,
        0.0,
        0.0,
        0.0,
        2.220446049250313e-16,
        -1.0,
        0.0,
        0.0,
        1.0,
        2.220446049250313e-16,
        0.0,
        0.0,
        0.0,
        0.0,
        1.0
      ],
      "name": "Sketchfab_model"
    },
    {
      "children": [
        2
      ],
      "name": "root"
    },
    {
      "children": [
        3,
        5
      ],
      "matrix": [
        1.0,
        0.0,
        0.0,
        0.0,
        0.0,
        2.220446049250313e-16,
        1.0,
        0.0,
        0.0,
        -1.0,
        2.220446049250313e-16,
        0.0,
        0.0,
        0.0,
        0.0,
        1.0
      ],
      "name": "GLTF_SceneRootNode"
    },
    {
      "children": [
        4
      ],
      "name": "Pole_0"
    },
    {
      "mesh": 0,
      "name": "Object_4"
    },
    {
      "children": [
        6
      ],
      "name": "Glass1_4"
    },
    {
      "mesh": 1,
      "name": "Object_6"
    }
  ],
  "samplers": [
    {
      "magFilter": 9729,
      "minFilter": 9987,
      "wrapS": 10497,
      "wrapT": 10497
    }
  ],
  "scene": 0,
  "scenes": [
    {
      "name": "Sketchfab_Scene",
      "nodes": [
        0
      ]
    }
  ],
  "textures": [
    {
      "sampler": 0,
      "source": 0
    },
    {
      "sampler": 0,
      "source": 1
    }
  ]
}
