{
  "accessors": [
    {
      "bufferView": 2,
      "componentType": 5126,
      "count": 111,
      "max": [
        52.037742614746094,
        628.16259765625,
        29.237930297851563
      ],
      "min": [
        -18.6562557220459,
        601.316650390625,
        -26.050384521484375
      ],
      "type": "VEC3"
    },
    {
      "bufferView": 2,
      "byteOffset": 1332,
      "componentType": 5126,
      "count": 111,
      "max": [
        0.9049161672592163,
        -0.13533325493335724,
        0.990800142288208
      ],
      "min": [
        -0.9049165844917297,
        -1.0,
        -0.9908002018928528
      ],
      "type": "VEC3"
    },
    {
      "bufferView": 1,
      "componentType": 5126,
      "count": 111,
      "max": [
        0.8412141799926758,
        0.7180396318435669
      ],
      "min": [
        0.7292772531509399,
        0.5782803297042847
      ],
      "type": "VEC2"
    },
    {
      "bufferView": 0,
      "componentType": 5125,
      "count": 510,
      "type": "SCALAR"
    },
    {
      "bufferView": 2,
      "byteOffset": 2664,
      "componentType": 5126,
      "count": 251,
      "max": [
        58.99843978881836,
        660.2001953125,
        34.68550109863281
      ],
      "min": [
        -265.1219787597656,
        112.17183685302734,
        -31.49798583984375
      ],
      "type": "VEC3"
    },
    {
      "bufferView": 2,
      "byteOffset": 5676,
      "componentType": 5126,
      "count": 251,
      "max": [
        1.0,
        1.0,
        0.999989926815033
      ],
      "min": [
        -1.0,
        -1.0,
        -0.999989926815033
      ],
      "type": "VEC3"
    },
    {
      "bufferView": 1,
      "byteOffset": 888,
      "componentType": 5126,
      "count": 251,
      "max": [
        0.99609375,
        0.8126582503318787
      ],
      "min": [
        0.0,
        0.0
      ],
      "type": "VEC2"
    },
    {
      "bufferView": 0,
      "byteOffset": 2040,
      "componentType": 5125,
      "count": 1080,
      "type": "SCALAR"
    },
    {
      "bufferView": 2,
      "byteOffset": 8688,
      "componentType": 5126,
      "count": 106,
      "max": [
        -213.6261749267578,
        127.48936462402344,
        33.45018005371094
      ],
      "min": [
        -280.6178283691406,
        -7.510632514953613,
        -30.262672424316406
      ],
      "type": "VEC3"
    },
    {
      "bufferView": 2,
      "byteOffset": 9960,
      "componentType": 5126,
      "count": 106,
      "max": [
        0.9988381862640381,
        1.0,
        0.9499515891075134
      ],
      "min": [
        -0.9988381862640381,
        -1.0,
        -0.9499515295028687
      ],
      "type": "VEC3"
    },
    {
      "bufferView": 1,
      "byteOffset": 2896,
      "componentType": 5126,
      "count": 106,
      "max": [
        0.9958769083023071,
        0.6959478855133057
      ],
      "min": [
        0.2324478030204773,
        0.11066904664039612
      ],
      "type": "VEC2"
    },
    {
      "bufferView": 0,
      "byteOffset": 6360,
      "componentType": 5125,
      "count": 360,
      "type": "SCALAR"
    }
  ],
  "asset": {
    "extras": {
      "author": "kilansky (https://sketchfab.com/kilansky)",
      "license": "CC-BY-4.0 (http://creativecommons.org/licenses/by/4.0/)",
      "source": "https://sketchfab.com/3d-models/traffic-lamp-8fc87e63dc634b20a26890f09f7b9809",
      "title": "Traffic Lamp"
    },
    "generator": "Sketchfab-12.67.0",
    "version": "2.0"
  },
  "bufferViews": [
    {
      "buffer": 0,
      "byteLength": 7800,
      "name": "floatBufferViews",
      "target": 34963
    },
    {
      "buffer": 0,
      "byteLength": 3744,
      "byteOffset": 7800,
      "byteStride": 8,
      "name": "floatBufferViews",
      "target": 34962
    },
    {
      "buffer": 0,
      "byteLength": 11232,
      "byteOffset": 11544,
      "byteStride": 12,
      "name": "floatBufferViews",
      "target": 34962
    }
  ],
  "buffers": [
    {
      "byteLength": 22776,
      "uri": "scene.bin"
    }
  ],
  "materials": [
    {
      "doubleSided": true,
      "name": "blinn91",
      "pbrMetallicRoughness": {
        "baseColorFactor": [
          0.629,
          0.629,
          0.080512,
          1.0
        ],
        "metallicFactor": 0.0,
        "roughnessFactor": 0.9207483816249483
      }
    },
    {
      "doubleSided": true,
      "name": "blinn90",
      "pbrMetallicRoughness": {
        "baseColorFactor": [
          0.174,
          0.174,
          0.174,
          1.0
        ],
        "metallicFactor": 0.0,
        "roughnessFactor": 0.9207483816249483
      }
    },
    {
      "doubleSided": true,
      "name": "lambert72",
      "pbrMetallicRoughness": {
        "baseColorFactor": [
          0.122,
          0.122,
          0.122,
          1.0
        ],
        "metallicFactor": 0.0,
        "roughnessFactor": 0.6
      }
    }
  ],
  "meshes": [
    {
      "name": "TrafficLamp_blinn91_0",
      "primitives": [
        {
          "attributes": {
            "NORMAL": 1,
            "POSITION": 0,
            "TEXCOORD_0": 2
          },
          "indices": 3,
          "material": 0,
          "mode": 4
        }
      ]
    },
    {
      "name": "TrafficLamp_blinn90_0",
      "primitives": [
        {
          "attributes": {
            "NORMAL": 5,
            "POSITION": 4,
            "TEXCOORD_0": 6
          },
          "indices": 7,
          "material": 1,
          "mode": 4
        }
      ]
    },
    {
      "name": "TrafficLamp_lambert72_0",
      "primitives": [
        {
          "attributes": {
            "NORMAL": 9,
            "POSITION": 8,
            "TEXCOORD_0": 10
          },
          "indices": 11,
          "material": 2,
          "mode": 4
        }
      ]
    }
  ],
  "nodes": [
    {
      "children": [
        1
      ],
      "matrix": [
        1.0,
        0.0,
        0.0,
        0.0,
        0.0,
        2.220446049250313e-16,
        -1.0,
        0.0,
        0.0,
        1.0,
        2.220446049250313e-16,
        0.0,
        0.0,
        0.0,
        0.0,
        1.0
      ],
      "name": "Sketchfab_model"
    },
    {
      "children": [
        2
      ],
      "matrix": [
        1.0,
        0.0,
        0.0,
        0.0,
        0.0,
        0.0,
        1.0,
        0.0,
        0.0,
        -1.0,
        0.0,
        0.0,
        0.0,
        0.0,
        0.0,
        1.0
      ],
      "name": "6719a61fd62d4390b54e8d079143e91b.fbx"
    },
    {
      "children": [
        3
      ],
      "name": "RootNode"
    },
    {
      "children": [
        4,
        5,
        6
      ],
      "matrix": [
        0.009999999776482582,
        0.0,
        0.0,
        0.0,
        0.0,
        0.009999999776482582,
        0.0,
        0.0,
        0.0,
        0.0,
        0.009999999776482582,
        0.0,
        0.0,
        0.0,
        0.0,
        1.0
      ],
      "name": "TrafficLamp"
    },
    {
      "mesh": 0,
      "name": "TrafficLamp_blinn91_0"
    },
    {
      "mesh": 1,
      "name": "TrafficLamp_blinn90_0"
    },
    {
      "mesh": 2,
      "name": "TrafficLamp_lambert72_0"
    }
  ],
  "scene": 0,
  "scenes": [
    {
      "name": "Sketchfab_Scene",
      "nodes": [
        0
      ]
    }
  ]
}
